<svg xmlns="http://www.w3.org/2000/svg" viewBox="0 0 1024 1024" role="img" aria-labelledby="title desc">
  <title id="title">Community Lovable logo</title>
  <desc id="desc">A gradient community chat mark with three people and a speech bubble.</desc>
  <defs>
    <radialGradient id="g" cx="38%" cy="30%" r="72%">
      <stop offset="0" stop-color="#ffb14a"/>
      <stop offset="0.34" stop-color="#ff1978"/>
      <stop offset="0.68" stop-color="#c33fff"/>
      <stop offset="1" stop-color="#126bff"/>
    </radialGradient>
    <filter id="shadow" x="-18%" y="-14%" width="136%" height="138%" color-interpolation-filters="sRGB">
      <feDropShadow dx="0" dy="28" stdDeviation="24" flood-color="#000" flood-opacity="0.38"/>
    </filter>
    <mask id="bubble-dots">
      <rect width="1024" height="1024" fill="white"/>
      <circle cx="412" cy="554" r="34" fill="black"/>
      <circle cx="512" cy="554" r="34" fill="black"/>
      <circle cx="612" cy="554" r="34" fill="black"/>
    </mask>
  </defs>
  <rect width="1024" height="1024" rx="184" fill="#fff"/>
  <g filter="url(#shadow)">
    <circle cx="266" cy="330" r="74" fill="url(#g)"/>
    <circle cx="512" cy="232" r="84" fill="url(#g)"/>
    <circle cx="758" cy="330" r="74" fill="url(#g)"/>
    <path d="M164 520c0-34 28-62 62-62s62 28 62 62v44c0 105 85 190 190 190h6v52c0 19-15 34-34 34h-7c-154 0-279-125-279-279v-41Z" fill="url(#g)"/>
    <path d="M736 520c0-34 28-62 62-62s62 28 62 62v41c0 154-125 279-279 279h-7c-19 0-34-15-34-34v-52h6c105 0 190-85 190-190v-44Z" fill="url(#g)"/>
    <path mask="url(#bubble-dots)" fill="url(#g)" d="M512 362c-161 0-292 96-292 214 0 97 88 179 209 205 33 7 53 41 43 73l-16 52c-8 27 23 49 45 32l137-108c99-34 166-131 166-254 0-118-131-214-292-214Z"/>
  </g>
</svg>
